<?xml version="1.0" standalone="no"?>
<!DOCTYPE svg PUBLIC "-//W3C//DTD SVG 20010904//EN"
 "http://www.w3.org/TR/2001/REC-SVG-20010904/DTD/svg10.dtd">
<svg version="1.0" xmlns="http://www.w3.org/2000/svg"
 width="826.000000pt" height="283.000000pt" viewBox="0 0 826.000000 283.000000"
 preserveAspectRatio="xMidYMid meet">
<metadata>
Created by potrace 1.15, written by Peter Selinger 2001-2017
</metadata>
<g transform="translate(0.000000,283.000000) scale(0.100000,-0.100000)"
fill="#000000" stroke="none">
<path d="M430 2817 c0 -16 528 -1108 543 -1124 14 -14 1223 -227 1237 -218 6
3 10 13 10 21 0 8 -137 243 -305 523 l-305 509 -52 15 c-184 53 -1088 287
-1106 287 -12 0 -22 -6 -22 -13z m620 -192 l526 -138 287 -479 c282 -473 286
-480 254 -474 -17 3 -266 46 -552 96 -286 49 -529 92 -541 95 -16 3 -59 83
-189 352 -304 627 -335 695 -323 691 7 -3 249 -67 538 -143z"/>
<path d="M5290 1185 l0 -585 80 0 80 0 0 265 0 265 270 0 270 0 0 75 0 75
-270 0 -270 0 0 175 0 175 315 0 315 0 0 70 0 70 -395 0 -395 0 0 -585z"/>
<path d="M2540 1165 l0 -585 120 0 120 0 0 220 0 220 88 0 c181 1 316 17 375
44 138 66 211 217 187 387 -21 148 -99 244 -230 283 -44 13 -108 16 -357 16
l-303 0 0 -585z m551 363 c103 -45 124 -174 40 -249 -48 -43 -75 -49 -233 -49
l-118 0 0 161 0 162 138 -5 c92 -3 149 -10 173 -20z"/>
<path d="M6420 1448 c-19 -13 -46 -41 -60 -62 l-25 -39 -3 52 -3 51 -70 0 -69
0 0 -425 0 -425 74 0 74 0 4 278 c3 243 6 284 23 332 27 74 69 103 140 97 28
-3 61 -8 76 -12 23 -6 27 -2 52 61 15 37 26 68 24 69 -1 0 -20 9 -42 19 -22
10 -67 21 -100 23 -51 4 -65 2 -95 -19z"/>
<path d="M6905 1456 c-100 -32 -196 -112 -232 -195 -57 -134 -58 -351 -1 -466
74 -147 194 -210 383 -203 86 3 109 8 166 34 76 36 125 89 164 179 14 31 25
59 23 60 -2 1 -38 6 -80 10 l-77 7 -20 -40 c-49 -97 -124 -140 -222 -129 -119
14 -197 96 -218 229 l-8 48 313 0 314 0 0 58 c-1 197 -101 350 -264 405 -59
20 -183 21 -241 3z m246 -151 c46 -33 86 -98 96 -158 l6 -37 -232 0 -232 0 7
38 c14 78 65 146 134 177 24 10 58 14 107 12 61 -2 78 -7 114 -32z"/>
<path d="M7733 1451 c-94 -32 -190 -125 -226 -218 -26 -67 -38 -202 -26 -296
19 -152 86 -252 209 -311 62 -30 70 -31 190 -31 145 1 188 15 266 87 42 38
104 142 104 174 0 10 -84 24 -140 24 -10 0 -24 -16 -35 -40 -46 -101 -163
-153 -266 -118 -96 32 -161 114 -175 221 l-7 47 311 0 c264 0 311 2 316 15 6
18 -9 156 -24 206 -30 104 -137 211 -245 244 -67 20 -187 18 -252 -4z m225
-126 c70 -30 116 -90 127 -167 l7 -48 -226 0 -226 0 0 28 c0 66 72 164 142
192 37 14 135 11 176 -5z"/>
<path d="M3765 1440 c-58 -12 -85 -24 -132 -59 -45 -33 -89 -99 -99 -148 -6
-30 -5 -31 45 -42 28 -6 76 -14 105 -17 49 -6 55 -4 60 14 4 11 23 35 43 52
35 31 39 32 111 28 66 -3 77 -6 98 -31 16 -19 24 -40 24 -65 0 -43 8 -40 -206
-88 -209 -46 -285 -101 -304 -218 -15 -91 4 -160 59 -219 46 -50 97 -70 192
-75 100 -5 163 11 228 59 23 16 45 29 49 29 5 0 14 -18 21 -40 l12 -40 114 0
c63 0 115 1 115 3 0 1 -10 27 -22 57 -20 50 -22 79 -28 345 -5 257 -8 294 -25
329 -20 42 -84 93 -143 114 -45 16 -262 25 -317 12z m253 -534 c-4 -89 -22
-120 -88 -153 -53 -27 -87 -29 -134 -7 -66 32 -80 128 -24 164 21 13 205 67
237 69 10 1 12 -15 9 -73z"/>
<path d="M934 1422 c-19 -12 -934 -1226 -934 -1239 0 -6 8 -14 18 -17 25 -8
1194 -166 1229 -166 28 0 61 41 473 588 244 323 445 597 448 608 5 27 72 13
-613 129 -308 52 -571 97 -585 100 -14 3 -30 2 -36 -3z m591 -142 c297 -50
548 -94 558 -98 15 -6 -48 -95 -405 -569 -233 -309 -430 -562 -438 -563 -8 0
-275 34 -592 77 l-577 77 30 41 c16 22 215 286 442 587 276 366 417 545 427
543 8 -2 258 -45 555 -95z"/>
<path d="M4304 1413 c3 -10 75 -200 160 -423 151 -399 153 -406 140 -440 -36
-89 -84 -120 -187 -120 l-69 0 6 -28 c3 -15 8 -55 11 -88 l7 -61 62 -6 c123
-12 239 14 294 66 48 44 94 152 263 612 94 259 174 478 177 488 4 15 -6 17
-115 17 l-120 0 -94 -285 c-51 -157 -95 -285 -99 -285 -3 0 -48 128 -100 285
l-95 285 -123 0 c-113 0 -123 -1 -118 -17z"/>
</g>
</svg>
